<mxfile host="app.diagrams.net" modified="2023-11-15T14:52:02.383Z" agent="Mozilla/5.0 (Windows NT 10.0; Win64; x64) AppleWebKit/537.36 (KHTML, like Gecko) Chrome/119.0.0.0 Safari/537.36" etag="1752xzr0zzrsD9lDpG6y" version="22.1.1" type="github">
  <diagram name="PÃ¡gina-1" id="spP1YFF_guTkTWRbTwB5">
    <mxGraphModel dx="1050" dy="542" grid="1" gridSize="10" guides="1" tooltips="1" connect="1" arrows="1" fold="1" page="1" pageScale="1" pageWidth="827" pageHeight="1169" math="0" shadow="0">
      <root>
        <mxCell id="0" />
        <mxCell id="1" parent="0" />
        <mxCell id="LE13JaDe_Nj9OXxJ77rd-1" value="IPF AUTOMATIZACION SECUENCIA" style="swimlane;childLayout=stackLayout;resizeParent=1;resizeParentMax=0;horizontal=0;startSize=20;horizontalStack=0;html=1;" vertex="1" parent="1">
          <mxGeometry x="40" y="20" width="950" height="580" as="geometry" />
        </mxCell>
        <mxCell id="LE13JaDe_Nj9OXxJ77rd-2" value="DATOS" style="swimlane;startSize=20;horizontal=0;html=1;" vertex="1" parent="LE13JaDe_Nj9OXxJ77rd-1">
          <mxGeometry x="20" width="930" height="290" as="geometry" />
        </mxCell>
        <mxCell id="LE13JaDe_Nj9OXxJ77rd-4" value="INSUMO" style="swimlane;startSize=20;horizontal=0;html=1;" vertex="1" parent="LE13JaDe_Nj9OXxJ77rd-1">
          <mxGeometry x="20" y="290" width="930" height="290" as="geometry" />
        </mxCell>
      </root>
    </mxGraphModel>
  </diagram>
</mxfile>
